<?xml version="1.0" standalone="no"?>
<!DOCTYPE svg PUBLIC "-//W3C//DTD SVG 20010904//EN"
 "http://www.w3.org/TR/2001/REC-SVG-20010904/DTD/svg10.dtd">
<svg version="1.0" xmlns="http://www.w3.org/2000/svg"
 width="500.000000pt" height="500.000000pt" viewBox="0 0 500.000000 500.000000"
 preserveAspectRatio="xMidYMid meet" style="color: #6B06FF">

<g transform="translate(0.000000,500.000000) scale(0.100000,-0.100000)"
fill="#000000" stroke="none">
<path d="M1517 4248 c-33 -25 -74 -328 -63 -473 10 -135 25 -211 62 -307 57
-150 120 -233 276 -360 106 -86 274 -244 282 -264 7 -18 -60 -1 -144 36 -211
93 -493 160 -669 160 -79 0 -216 -24 -284 -50 -123 -46 -263 -172 -316 -285
-32 -68 -28 -86 39 -168 183 -228 382 -341 648 -367 121 -11 283 12 427 61 73
25 156 40 184 32 32 -8 25 -34 -24 -82 -76 -73 -152 -193 -195 -311 -106 -286
-40 -650 177 -981 63 -97 63 -97 119 -48 202 174 364 398 448 619 48 127 56
160 87 365 18 124 49 225 68 225 3 0 7 -107 7 -238 1 -235 2 -238 33 -345 69
-238 186 -404 396 -562 69 -53 240 -134 312 -150 30 -6 32 -5 42 32 29 109 40
410 21 578 -29 259 -128 552 -244 723 -20 30 -33 58 -30 63 8 14 62 -18 144
-86 180 -149 352 -225 635 -280 128 -25 387 -45 402 -31 31 28 -51 397 -118
527 -107 211 -274 354 -494 424 -98 31 -114 34 -257 44 -148 10 -286 0 -416
-31 -127 -30 -137 -19 -56 60 58 57 77 68 364 220 160 84 238 158 308 291 57
108 75 197 76 363 1 100 -3 140 -12 150 -19 19 -324 16 -420 -5 -90 -20 -207
-69 -287 -122 -67 -44 -185 -157 -234 -225 -24 -33 -31 -38 -26 -20 11 40 85
183 106 206 10 11 19 23 19 27 0 4 16 28 36 54 20 27 45 61 57 77 24 33 96
118 106 126 25 19 101 136 101 155 0 32 -33 42 -68 19 -29 -18 -86 -75 -112
-110 -68 -94 -143 -208 -171 -259 -12 -22 -24 -42 -28 -45 -16 -13 -122 -246
-141 -310 -8 -25 -17 -50 -22 -56 -8 -11 -56 -179 -65 -227 -7 -39 -18 -41
-21 -5 -5 62 -58 246 -78 269 -8 9 -14 37 -14 63 0 27 -8 62 -20 84 -10 20
-31 71 -46 112 -32 89 -95 217 -137 280 -95 141 -248 262 -402 320 -115 43
-331 65 -368 38z m745 -705 c45 -48 58 -73 58 -113 0 -24 9 -41 34 -64 22 -20
51 -68 80 -134 25 -56 46 -105 46 -108 0 -3 11 -30 25 -61 38 -83 63 -198 55
-258 l-5 -40 -14 35 c-24 58 -92 151 -161 220 -72 73 -205 165 -263 182 -21 6
-43 21 -49 32 -35 69 -98 87 -143 41 -33 -32 -33 -78 0 -110 30 -31 87 -34
113 -7 16 18 20 17 105 -26 48 -25 98 -55 110 -66 12 -12 39 -34 59 -49 33
-24 158 -167 158 -181 0 -3 14 -27 30 -53 31 -49 41 -84 18 -65 -24 18 -243
83 -322 95 -72 10 -81 14 -95 41 -17 31 -146 230 -161 249 -108 132 -172 224
-184 264 -11 34 25 63 77 63 130 0 294 -98 381 -228 41 -60 50 -63 42 -13 -7
48 -70 195 -96 226 -19 22 -37 72 -34 93 1 6 2 18 3 26 2 25 31 46 65 46 24 0
41 -9 68 -37z m797 -162 c21 -16 23 -24 18 -58 -12 -73 -97 -212 -173 -283
-67 -63 -130 -132 -181 -201 -24 -33 -44 -59 -45 -59 -4 0 8 204 17 283 4 37
13 73 19 80 6 7 20 29 30 49 30 56 130 160 178 184 54 27 106 29 137 5z m278
-251 c15 -30 2 -64 -40 -109 -34 -35 -152 -127 -225 -174 -24 -15 -69 -53
-100 -83 -51 -51 -61 -57 -107 -60 -27 -2 -81 -6 -118 -8 -76 -6 -75 -11 -17
60 14 16 36 45 50 64 53 71 97 113 135 130 22 10 49 26 60 36 11 11 47 40 80
66 33 27 65 52 72 58 7 5 29 10 49 10 27 0 43 7 63 29 24 27 28 28 56 17 17
-7 35 -23 42 -36z m-1112 -400 c80 -17 186 -48 198 -57 7 -5 35 -18 62 -28 28
-10 68 -28 90 -41 l40 -23 80 20 c105 27 251 36 296 19 19 -7 79 -16 134 -20
80 -5 112 -13 160 -35 54 -26 195 -113 195 -121 0 -1 -30 6 -67 17 -38 11
-102 22 -143 25 -66 6 -77 4 -93 -13 -17 -19 -16 -21 3 -46 19 -24 52 -42 182
-100 20 -10 40 -17 44 -17 20 0 113 -66 123 -87 17 -36 14 -49 -20 -88 -21
-23 -40 -35 -58 -35 -27 0 -95 37 -166 91 -22 16 -71 45 -109 64 -135 68 -175
38 -115 -83 18 -37 39 -74 45 -82 6 -8 39 -68 73 -132 46 -88 62 -129 64 -165
2 -39 -1 -48 -17 -51 -10 -2 -29 2 -42 8 -25 14 -116 138 -155 210 -13 25 -27
47 -30 50 -3 3 -14 19 -23 37 -22 45 -47 56 -75 36 -19 -13 -22 -22 -17 -52
25 -158 33 -280 20 -328 -7 -27 -48 -31 -79 -9 -50 34 -71 108 -109 384 -14
103 -27 135 -50 126 -17 -7 -118 -130 -142 -174 -10 -19 -24 -42 -31 -50 -6
-8 -19 -35 -28 -60 -9 -25 -21 -54 -25 -65 -5 -11 -16 -44 -25 -74 -43 -140
-139 -198 -187 -112 -38 67 -22 205 46 396 32 92 20 106 -37 43 -79 -88 -129
-179 -141 -260 -12 -77 -94 -143 -143 -117 -50 27 -49 119 2 249 21 52 44 100
51 108 8 7 14 18 14 23 0 10 43 83 102 173 21 32 38 62 38 67 0 37 -127 43
-404 19 -280 -24 -346 -19 -346 24 0 70 198 173 350 182 91 6 143 20 137 38
-5 19 -110 65 -152 66 -39 2 -39 2 30 26 39 13 95 28 125 34 61 10 263 4 325
-10z"/>
</g>
</svg>
